<svg xmlns="http://www.w3.org/2000/svg" viewBox="0 0 500 500"><path d="M92.16 138c70.07-79.73 190.37-93 244-67.39a235.56 235.56 0 0 1 57.21 38.23q3.36 3 6.53 6.17a223.63 223.63 0 0 1 18.53 20.67A217.54 217.54 0 0 1 437 163.22a202.64 202.64 0 0 1 18.53 43.47 153.78 153.78 0 0 1 5.78 30.51c1.53 19.41.2 39-2.41 58.25q-.36 2.76-.78 5.52c-.07.51-.14 1-.22 1.53-2.87 19.17-6.93 38.51-16 55.23C432 376 397.46 426.69 360 428c-19.43.69-36.59-12-54.2-21-28-14.28-59.69-17.08-90.59-17.91s-62.18.06-92.29-7.6S63.29 356.24 47.9 327c-5.23-9.94-9.2-24.26-9.21-35.72 0-33.81 5.52-63.38 15.16-89.07a209.81 209.81 0 0 1 10.69-23.93 203.54 203.54 0 0 1 20.92-32.17Z" style="fill:#daa520"/><g style="opacity:.7000000000000001"><path d="M92.16 138c70.07-79.73 190.37-93 244-67.39a235.56 235.56 0 0 1 57.21 38.23q3.36 3 6.53 6.17a223.63 223.63 0 0 1 18.53 20.67A217.54 217.54 0 0 1 437 163.22a202.64 202.64 0 0 1 18.53 43.47 153.78 153.78 0 0 1 5.78 30.51c1.53 19.41.2 39-2.41 58.25q-.36 2.76-.78 5.52c-.07.51-.14 1-.22 1.53-2.87 19.17-6.93 38.51-16 55.23C432 376 397.46 426.69 360 428c-19.43.69-36.59-12-54.2-21-28-14.28-59.69-17.08-90.59-17.91s-62.18.06-92.29-7.6S63.29 356.24 47.9 327c-5.23-9.94-9.2-24.26-9.21-35.72 0-33.81 5.52-63.38 15.16-89.07a209.81 209.81 0 0 1 10.69-23.93 203.54 203.54 0 0 1 20.92-32.17Z" style="fill:#fff"/></g><path style="fill:none;stroke:#263238;stroke-linecap:round;stroke-linejoin:round" d="M38.69 426.84h430.05M53.85 300.97v-98.81M362.35 300.97h-12.21M458.1 300.97h-24.87M349.02 150.86h44.07v-41.98M92.16 138.04h46.82v34.15h51.32M64.54 253.69v-75.46M85.46 145.48v59.14M106.37 145.48v52.28M127.28 145.48v91.45M227.45 132.51V72.38h85.13v60.13"/><path style="fill:none;stroke:#263238;stroke-linecap:round;stroke-linejoin:round" d="M233.69 102.25V79.52h15.74M252.89 102.25V79.52h15.74M272.09 102.25V79.52h15.74M291.29 102.25V79.52h15.74M233.69 132.51v-22.73h15.74M252.89 132.51v-22.73h15.74M272.09 132.51v-22.73h15.74M291.29 132.51v-22.73h15.74M399.91 114.08v75.35M430.82 295.45h2.41M418.44 135.72v84.36M436.98 273.91v21.54h14.79M436.98 163.22v57.29M455.51 206.69v88.76h3.37"/><path style="fill:#fff;stroke:#263238;stroke-linecap:round;stroke-linejoin:round" d="M38.69 302.78h191v124.06h-191z"/><path style="fill:#fff;stroke:#263238;stroke-linecap:round;stroke-linejoin:round" d="m38.69 302.78 95.5 62.03 95.5-62.03h-191z"/><path style="fill:none;stroke:#263238;stroke-linecap:round;stroke-linejoin:round" d="m105.48 346.16-66.79 80.68M163.42 346.16l66.79 80.68"/><path d="M331.9 144.48h-44.4a7.16 7.16 0 0 0-6.26 3.7 12.61 12.61 0 0 1-22.06 0 7.15 7.15 0 0 0-6.29-3.75h-44.35a9.27 9.27 0 0 0-9.39 9.15V404a9.28 9.28 0 0 0 9.39 9.15H331.9a9.29 9.29 0 0 0 9.4-9.15V153.63a9.28 9.28 0 0 0-9.4-9.15Z" style="fill:#daa520"/><path d="M345.63 150.86A12.82 12.82 0 0 0 332.81 138H207.64a12.81 12.81 0 0 0-12.82 12.81V414a12.81 12.81 0 0 0 12.81 12.81h125.18A12.82 12.82 0 0 0 345.63 414ZM341.3 404a9.29 9.29 0 0 1-9.4 9.15H208.54a9.28 9.28 0 0 1-9.39-9.15V153.63a9.27 9.27 0 0 1 9.39-9.15h44.37a7.13 7.13 0 0 1 6.28 3.75 12.61 12.61 0 0 0 22.06 0 7.14 7.14 0 0 1 6.26-3.7h44.4a9.27 9.27 0 0 1 9.39 9.15Z" style="fill:#263238"/><path style="fill:#fff;opacity:.2" d="m303.1 138.04-83.15 288.79 33.02-.03 80.07-288.76H303.1zM290.7 138.04l-87.91 288.8 4.81-.03 86.26-288.77h-3.16z"/><path d="M292.65 352.73a21.46 21.46 0 0 1-21.53 21.92 22.39 22.39 0 0 1-22.3-21.92 21.46 21.46 0 0 1 21.53-21.91 22.38 22.38 0 0 1 22.3 21.91Z" style="fill:#fff;stroke:#263238;stroke-linecap:round;stroke-linejoin:round"/><path d="M263.55 369.09a16.42 16.42 0 0 1-5.49-3.38 15 15 0 0 1-3.63-5.49 19.54 19.54 0 0 1-1.31-7.3 17.46 17.46 0 0 1 1.11-6.23 15.67 15.67 0 0 1 3-5 20 20 0 0 1 9.57-5.82 21.18 21.18 0 0 1 5.54-.73 18.88 18.88 0 0 1 4.61.55 14.78 14.78 0 0 1 4.13 1.71 13.76 13.76 0 0 1 3.37 2.85 12.58 12.58 0 0 1 2.26 4.1 16.43 16.43 0 0 1 .82 5.29 14.68 14.68 0 0 1-3.53 9.46 13.09 13.09 0 0 1-3.4 2.75 7.55 7.55 0 0 1-3.62 1 4 4 0 0 1-2.44-.79 2.84 2.84 0 0 1-1.15-2.26 7 7 0 0 1-6.05 3.15 6.3 6.3 0 0 1-5-2.12 7.66 7.66 0 0 1-1.85-5.23 14 14 0 0 1 .81-4.62 16 16 0 0 1 2.21-4.18 11 11 0 0 1 3.5-3.05 9.06 9.06 0 0 1 4.49-1.17 6.59 6.59 0 0 1 3.14.76 5.16 5.16 0 0 1 2.18 2.23l.2-.67a1.87 1.87 0 0 1 2.37-1.17 2 2 0 0 1 .51.26 1.2 1.2 0 0 1 .45 1 1.71 1.71 0 0 1-.09.55l-3.24 10.78a10.72 10.72 0 0 0-.55 2.54 1 1 0 0 0 1.19 1.16 4.47 4.47 0 0 0 3-1.43 10.27 10.27 0 0 0 2.43-3.79 13.26 13.26 0 0 0 .94-4.9 14.3 14.3 0 0 0-.64-4.36 10.65 10.65 0 0 0-1.72-3.37 10.19 10.19 0 0 0-2.61-2.33 11.34 11.34 0 0 0-3.22-1.39 14 14 0 0 0-3.58-.46 16.52 16.52 0 0 0-4.53.64 16.09 16.09 0 0 0-4.29 1.93 16.74 16.74 0 0 0-3.6 3.06 13.4 13.4 0 0 0-2.48 4.24 14.89 14.89 0 0 0-.93 5.29 16.33 16.33 0 0 0 1.14 6.25 11.94 11.94 0 0 0 3.12 4.5 14 14 0 0 0 4.52 2.63 16.08 16.08 0 0 0 5.45.92 19.67 19.67 0 0 0 5.85-.89 1.7 1.7 0 0 1 .59-.1 1.33 1.33 0 0 1 1 .43 1.4 1.4 0 0 1 .39 1 1.21 1.21 0 0 1-.94 1.28 25.65 25.65 0 0 1-7.28 1.12 19.56 19.56 0 0 1-6.72-1.2Zm8.26-10.37a5.65 5.65 0 0 0 2.09-2.88l2.09-7.35-.14-.3a3.51 3.51 0 0 0-.47-.67 6.88 6.88 0 0 0-.82-.8 4.24 4.24 0 0 0-1.25-.69 5 5 0 0 0-3.63.13 5.85 5.85 0 0 0-1.71 1.11 9.31 9.31 0 0 0-1.38 1.62 11.05 11.05 0 0 0-1 1.95 12 12 0 0 0-.65 2.11 9.84 9.84 0 0 0-.23 2.09 8.59 8.59 0 0 0 .08 1.35 5.82 5.82 0 0 0 .26 1.17 4 4 0 0 0 .47 1 2.74 2.74 0 0 0 .68.72 2.86 2.86 0 0 0 .95.45 4 4 0 0 0 1.23.16 5.64 5.64 0 0 0 3.47-1.14Z" style="fill:#daa520;stroke:#263238;stroke-linecap:round;stroke-linejoin:round"/><path d="M292.16 277.6a21.46 21.46 0 0 1-21.53 21.91 22.38 22.38 0 0 1-22.3-21.91 21.45 21.45 0 0 1 21.53-21.92 22.39 22.39 0 0 1 22.3 21.92Z" style="fill:#fff;stroke:#263238;stroke-linecap:round;stroke-linejoin:round"/><path d="M284 275.6c-6.87-4.5-20.34-4.5-26.89 0a5.08 5.08 0 0 0-4.14 5.19c.1 2.91 12.19 2.91 12.09 0a5.45 5.45 0 0 0-1.32-3.3 32.57 32.57 0 0 1 13.76 0 5.06 5.06 0 0 0-1.08 3.3c.1 2.91 12.19 2.91 12.08 0a5.54 5.54 0 0 0-4.5-5.19Z" style="fill:#daa520;stroke:#263238;stroke-linecap:round;stroke-linejoin:round"/><path d="M292.16 204.62c.12 5.39-2.82 10.21-7.54 13.42v13.09l-9.39-9.4a25.64 25.64 0 0 1-4.6.4c-12.1 0-22.09-7.84-22.3-17.51s9.42-17.5 21.53-17.5 22.14 7.88 22.3 17.5Z" style="fill:#fff;stroke:#263238;stroke-linecap:round;stroke-linejoin:round"/><path d="M260.91 204.62a2.84 2.84 0 1 1-2.84-2.83 2.84 2.84 0 0 1 2.84 2.83ZM273.06 204.62a2.84 2.84 0 1 1-2.84-2.83 2.84 2.84 0 0 1 2.84 2.83ZM285.21 204.62a2.84 2.84 0 1 1-2.84-2.83 2.84 2.84 0 0 1 2.84 2.83Z" style="fill:#daa520;stroke:#263238;stroke-linecap:round;stroke-linejoin:round"/></svg>